<?xml version='1.0' encoding='utf-8'?>
<svg xmlns="http://www.w3.org/2000/svg" version="1.1" viewBox="0 0 524.41 744.09">
 <defs>
  <linearGradient id="grad1" x1="0%" y1="0%" x2="100%" y2="0%">
   <stop offset="0%" style="stop-color:#f97316;stop-opacity:1" />
   <stop offset="100%" style="stop-color:#facc15;stop-opacity:1" />
  </linearGradient>
 </defs>
 <g transform="translate(0 -308.27)">
  <g transform="matrix(.8 0 0 .8 -37.478 267.06)">
   <path d="m518.24 745.95c0.0491-0.50953 0.69716-0.96194 1.9273-1.2302 1.2302-0.26821 3.0476-0.34329 5.3047 0.0432 2.2571 0.38648 4.9567 1.2445 7.7572 2.8388s5.6994 3.933 8.157 7.1381c1.699 2.238 3.1423 4.8481 4.1732 7.7317 1.031 2.8837 1.6484 6.0402 1.7287 9.3032 0.0767 3.1127-0.33971 6.17-1.1775 9.0169-0.97256 3.2636-2.4715 6.1809-4.2492 8.6459s-3.832 4.4784-5.9284 6.0351c-2.1906 1.6223-4.3996 2.7324-6.4141 3.4572s-3.8349 1.067-5.3346 1.1736c-1.4998 0.10652-2.6804-0.0197-3.4876-0.25806s-1.2425-0.58641-1.2996-0.99151c-0.057-0.4051 0.26435-0.8454 0.86972-1.3438 0.60536-0.49838 1.4955-1.0582 2.5748-1.7491s2.3492-1.5152 3.6943-2.5445c1.345-1.0293 2.7663-2.2647 4.1078-3.7519 1.2873-1.4222 2.5161-3.0918 3.5626-4.9862s1.9108-4.0127 2.4487-6.2726c0.47185-1.9419 0.69178-4.029 0.63345-6.1744-0.0611-2.2491-0.42395-4.447-1.0208-6.4896s-1.428-3.929-2.4247-5.5987c-1.4163-2.4105-3.2083-4.4314-5.0155-6.0718s-3.6314-2.9018-5.2246-3.8958c-1.5931-0.99396-2.9596-1.727-3.9136-2.3549-0.95398-0.62794-1.4986-1.1614-1.4495-1.6709z" fill="url(#grad1)" fill-rule="evenodd"/>
   <path d="m438.6 577.9c-1.1384 9.8909-2.3447 26.873-3.115 36.634-0.77028 9.761-1.0981 21.379-0.34272 34.223 0.75533 12.845 2.21 25.032 6.0785 41.3 3.8684 16.268 9.0482 33.99 16.523 49.945 7.4751 15.956 19.933 33.017 30.052 46.709-15.905-8.4981-26.069-13.218-41.99-34.578s-21.689-41.996-24.944-55.936-3.0952-32.1-2.5916-43.953c0.50353-11.854 2.5216-24.743 4.7872-34.6 2.2655-9.8568 4.4309-21.018 15.543-39.744z" fill="url(#grad1)" fill-rule="evenodd"/>
   <path d="m518.07 96.122c-8.2682 3.1706-16.121 6.1884-23.959 10.293s-19.622 12.159-26.155 18.079c-6.5332 5.9201-14.333 14.839-18.211 20.371-3.8782 5.5322-10.539 17.198-14.699 24.807 0.38827-8.3463 0.72233-15.614 3.2884-23.256 2.5661-7.6421 8.424-21.307 20.502-31.913s21.073-13.903 31.148-16.659c10.075-2.7554 20.211-2.4082 28.087-1.7231z" fill="url(#grad1)" fill-rule="evenodd"/>
   <path d="m544.08 103.16c-3.3517 4.2202-4.0994 6.759-6.4675 11.411s-4.407 12.272-4.2259 18.306 0.90403 12.839 4.5392 18.492c3.6351 5.6533 10.895 11.369 15.844 13.413-7.1816 0.50143-17.849-4.8017-21.491-9.2975-3.6423-4.4958-10.116-11.244-10.027-22.17 0.0894-10.926 3.6595-16.164 7.7566-20.769 4.0972-4.605 9.3836-8.5255 14.071-9.3848z" fill="url(#grad1)" fill-rule="evenodd"/>
   <path d="m539.66 97.236c-7.5848 4.5701-14.787 8.917-21.785 14.331-6.9982 5.4145-17.188 15.409-22.583 22.382-5.395 6.9732-11.511 17.121-14.36 23.247-2.849 6.1261-7.3626 18.778-10.126 26.999-1.08-8.2852-2.0245-15.499-0.83697-23.473 1.1875-7.9735 4.5608-22.453 14.594-35.011 10.033-12.558 18.311-17.38 27.747-21.858 9.4362-4.4779 19.476-5.9118 27.35-6.6172z" fill="url(#grad1)" fill-rule="evenodd"/>
   <path d="m573.44 834.84c-30.119-15.376-64.025-22.104-97.77-24.299-33.745-2.1956-67.599-0.0305-101.38 1.462s-67.797 2.3012-101.26-2.5732-66.599-15.713-93.897-35.674c-23.68-17.315-42.349-41.145-54.656-67.773s-18.343-55.986-18.822-85.317c-0.70718-43.246 10.745-86.675 32.995-123.76 22.25-37.09 55.265-67.694 94.092-86.753 25.192-12.366 52.474-19.857 78.31-30.814s51.061-26.2 66.416-49.69c15.761-24.11 19.319-53.856 26.267-81.81 7.528-30.287 19.468-59.473 35.328-86.352-21.078 15.799-37.527 37.697-46.83 62.341-5.2464 13.899-8.234 28.524-11.863 42.931s-7.9938 28.825-15.677 41.541c-7.8608 13.01-19.005 23.85-31.508 32.494s-26.364 15.165-40.562 20.595c-28.395 10.859-58.388 17.51-85.963 30.308-43.299 20.095-79.113 55.139-102.13 96.961-23.012 41.822-33.422 90.145-31.936 137.86 1.0888 34.978 8.5251 69.952 23.634 101.52 15.109 31.566 38.052 59.629 67.152 79.068 45.511 30.403 102.44 37.988 157.16 38.909 54.724 0.92146 109.91-3.9547 163.92 4.9335 68.443 11.265 132.97 45.141 181.11 95.08-13.921-47.485-48.057-88.678-92.13-111.18" fill="url(#grad1)" stroke="#000" stroke-width=".729px"/>
  </g>
 </g>
</svg>
